<svg xmlns="http://www.w3.org/2000/svg" xmlns:xlink="http://www.w3.org/1999/xlink" width="1080" zoomAndPan="magnify" viewBox="0 0 810 809.999993" height="1080" preserveAspectRatio="xMidYMid meet" version="1.0"><path fill="#083d82" d="M 366.5 345.675781 C 366.5 323.679688 378.132812 307.617188 395.367188 307.617188 C 409.316406 307.617188 420.105469 317.761719 423.804688 334.367188 L 407.203125 337.441406 C 405.1875 323.589844 399.167969 313.972656 392.296875 313.972656 C 385.421875 313.972656 381.507812 322.21875 381.507812 335.851562 C 381.507812 356.148438 390.597656 372.96875 402.972656 372.96875 C 410.6875 372.96875 415.660156 366.519531 415.660156 353.402344 L 423.695312 356.148438 C 420.421875 372.226562 411.003906 383.746094 396.097656 383.746094 C 378.761719 383.746094 366.5 368.195312 366.5 345.6875 Z M 366.5 345.675781 " fill-opacity="1" fill-rule="nonzero"/><path fill="#083d82" d="M 429.835938 355.304688 C 429.835938 339.128906 440.097656 327.394531 455.949219 327.394531 C 471.800781 327.394531 482.273438 339.339844 482.273438 355.519531 C 482.273438 371.695312 472.011719 383.429688 456.261719 383.429688 C 440.511719 383.429688 429.824219 371.480469 429.824219 355.304688 Z M 459.546875 377.398438 C 464.09375 377.398438 466.949219 372.226562 466.949219 363.652344 C 466.949219 350.433594 460.71875 333.414062 452.675781 333.414062 C 448.027344 333.414062 445.171875 338.585938 445.171875 347.160156 C 445.171875 360.378906 451.515625 377.398438 459.546875 377.398438 Z M 459.546875 377.398438 " fill-opacity="1" fill-rule="nonzero"/><path fill="#083d82" d="M 553.125 362.179688 L 551.113281 345.15625 C 550.367188 340.082031 548.367188 337.96875 545.824219 337.96875 C 543.28125 337.96875 540.851562 339.769531 537.261719 344.628906 L 539.691406 382.058594 L 522.886719 382.058594 C 522.988281 380.472656 522.988281 374.125 522.253906 361.964844 L 521.300781 345.15625 C 521.085938 340.082031 518.65625 337.96875 516.011719 337.96875 C 513.582031 337.96875 511.152344 339.871094 507.335938 344.84375 L 507.335938 361.976562 C 507.335938 374.136719 507.550781 380.796875 507.652344 382.066406 L 491.375 382.066406 C 491.585938 380.796875 491.6875 374.136719 491.6875 361.976562 L 491.6875 346.429688 C 491.6875 340.726562 491.261719 335.4375 490.316406 330.882812 L 505.75 327.921875 C 506.179688 331.09375 506.59375 334.480469 506.808594 337.96875 C 512.941406 330.464844 518.125 327.707031 523.300781 327.707031 C 529.535156 327.707031 534.617188 331.511719 536.40625 338.070312 C 542.539062 330.453125 547.726562 327.707031 553.429688 327.707031 C 560.617188 327.707031 565.589844 332.152344 566.851562 342.1875 L 571.824219 382.046875 L 554.902344 382.046875 C 555.003906 380.460938 554.585938 374.328125 553.101562 362.167969 Z M 553.125 362.179688 " fill-opacity="1" fill-rule="nonzero"/><path fill="#083d82" d="M 596.371094 381.945312 C 596.371094 392.835938 596.582031 398.863281 596.683594 400.023438 L 580.40625 400.023438 C 580.621094 398.753906 580.722656 392.09375 580.722656 379.929688 L 580.722656 346.417969 C 580.722656 340.714844 580.292969 335.425781 579.347656 330.871094 L 594.785156 327.910156 C 595.210938 330.871094 595.628906 334.042969 595.738281 337.214844 C 600.386719 330.769531 605.886719 327.597656 611.816406 327.597656 C 622.492188 327.597656 630.210938 338.070312 630.210938 352.976562 C 630.210938 370.953125 619.320312 383.214844 604.515625 383.214844 C 601.769531 383.214844 599.125 382.789062 596.371094 381.945312 Z M 603.773438 377.613281 C 610.332031 377.613281 614.664062 369.785156 614.664062 358.578125 C 614.664062 347.375 610.117188 337.640625 604.402344 337.640625 C 601.445312 337.640625 598.6875 339.972656 596.371094 345.675781 L 596.371094 374.011719 C 598.699219 376.445312 601.230469 377.613281 603.773438 377.613281 Z M 603.773438 377.613281 " fill-opacity="1" fill-rule="nonzero"/><path fill="#083d82" d="M 639.726562 361.964844 L 639.726562 328.550781 C 639.726562 316.390625 639.515625 309.730469 639.199219 308.570312 L 655.375 305.714844 L 655.375 361.964844 C 655.375 374.125 655.375 380.785156 655.691406 382.058594 L 639.414062 382.058594 C 639.625 380.785156 639.726562 374.125 639.726562 361.964844 Z M 639.726562 361.964844 " fill-opacity="1" fill-rule="nonzero"/><path fill="#083d82" d="M 664.78125 355.519531 C 664.78125 339.238281 675.457031 327.394531 689.304688 327.394531 C 701.253906 327.394531 710.027344 336.066406 712.671875 349.386719 L 680.746094 359.21875 C 683.488281 366.9375 689.207031 371.796875 696.609375 371.796875 C 701.894531 371.796875 706.867188 369.253906 710.671875 365.136719 L 712.46875 369.253906 C 709.082031 375.601562 701.792969 383.417969 690.058594 383.417969 C 675.785156 383.417969 664.792969 372 664.792969 355.507812 Z M 679.371094 353.933594 L 696.707031 348.328125 C 695.335938 340.398438 691.734375 333.421875 686.5625 333.421875 C 682.117188 333.421875 678.84375 338.285156 678.84375 347.585938 C 678.84375 349.804688 679.058594 351.917969 679.371094 353.933594 Z M 679.371094 353.933594 " fill-opacity="1" fill-rule="nonzero"/><path fill="#083d82" d="M 723.890625 368.625 L 723.890625 335.640625 L 715.429688 335.953125 L 715.429688 329.507812 L 723.890625 329.507812 C 723.890625 324.121094 723.675781 320.417969 723.359375 318.40625 L 739.640625 315.332031 L 739.640625 329.609375 L 754.546875 329.292969 L 752.113281 336.484375 L 739.640625 335.527344 L 739.640625 366.507812 C 739.640625 370.210938 741.855469 372.324219 744.925781 372.324219 C 747.671875 372.324219 750.316406 370.839844 752.859375 367.78125 L 754.546875 371.898438 C 751.160156 377.714844 745.554688 383.003906 737.410156 383.003906 C 729.265625 383.003906 723.878906 377.5 723.878906 368.625 Z M 723.890625 368.625 " fill-opacity="1" fill-rule="nonzero"/><path fill="#083d82" d="M 756.773438 355.519531 C 756.773438 339.238281 767.449219 327.394531 781.296875 327.394531 C 793.246094 327.394531 802.019531 336.066406 804.664062 349.386719 L 772.734375 359.21875 C 775.480469 366.9375 781.195312 371.796875 788.597656 371.796875 C 793.886719 371.796875 798.859375 369.253906 802.660156 365.136719 L 804.460938 369.253906 C 801.074219 375.601562 793.785156 383.417969 782.050781 383.417969 C 767.773438 383.417969 756.785156 372 756.785156 355.507812 Z M 771.363281 353.933594 L 788.699219 348.328125 C 787.328125 340.398438 783.726562 333.421875 778.550781 333.421875 C 774.109375 333.421875 770.835938 338.285156 770.835938 347.585938 C 770.835938 349.804688 771.046875 351.917969 771.363281 353.933594 Z M 771.363281 353.933594 " fill-opacity="1" fill-rule="nonzero"/><path fill="#083d82" d="M 366.5 445.5625 C 366.5 423.570312 378.132812 407.503906 395.367188 407.503906 C 409.316406 407.503906 420.105469 417.652344 423.804688 434.257812 L 407.203125 437.328125 C 405.1875 423.480469 399.167969 413.859375 392.296875 413.859375 C 385.421875 413.859375 381.507812 422.105469 381.507812 435.742188 C 381.507812 456.035156 390.597656 472.855469 402.972656 472.855469 C 410.6875 472.855469 415.660156 466.410156 415.660156 453.292969 L 423.695312 456.035156 C 420.421875 472.113281 411.003906 483.632812 396.097656 483.632812 C 378.761719 483.632812 366.5 468.085938 366.5 445.574219 Z M 366.5 445.5625 " fill-opacity="1" fill-rule="nonzero"/><path fill="#083d82" d="M 460.605469 472.519531 C 456.058594 479.605469 450.875 482.980469 444.855469 482.980469 C 435.867188 482.980469 429.632812 475.476562 429.632812 467.648438 C 429.632812 458.027344 438.835938 453.585938 456.273438 448.511719 L 455.957031 446.183594 C 455.003906 439.523438 451.097656 436.878906 446.441406 436.878906 C 441.46875 436.878906 435.867188 439.949219 431.75 442.378906 L 430.0625 438.046875 C 437.464844 432.332031 446.554688 427.585938 454.699219 427.585938 C 462.84375 427.585938 469.820312 432.34375 471.40625 443.019531 L 475.320312 466.914062 C 476.277344 472.832031 477.535156 477.703125 479.121094 481.921875 L 463.046875 481.921875 C 462.203125 479.492188 461.5625 477.164062 460.617188 472.519531 Z M 450.984375 473.046875 C 453.945312 473.046875 457.21875 470.300781 459.132812 466.171875 L 457.230469 454.441406 C 448.140625 455.597656 443.695312 458.140625 443.695312 463.53125 C 443.695312 468.1875 447.082031 473.046875 450.984375 473.046875 Z M 450.984375 473.046875 " fill-opacity="1" fill-rule="nonzero"/><path fill="#083d82" d="M 486.402344 461.84375 L 486.402344 446.292969 C 486.402344 440.378906 485.972656 435.191406 484.917969 430.746094 L 500.351562 427.789062 C 500.980469 432.648438 501.308594 438.148438 501.308594 445.339844 C 506.910156 432.121094 509.453125 427.574219 515.472656 427.574219 C 517.585938 427.574219 520.015625 428.203125 522.445312 429.058594 L 519.488281 447.667969 C 514.730469 445.238281 511.65625 443.550781 509.867188 443.550781 C 507.96875 443.550781 506.066406 445.664062 502.050781 453.167969 L 502.050781 461.84375 C 502.050781 474.003906 502.152344 480.664062 502.363281 481.933594 L 486.085938 481.933594 C 486.1875 480.664062 486.402344 474.003906 486.402344 461.84375 Z M 486.402344 461.84375 " fill-opacity="1" fill-rule="nonzero"/><path fill="#083d82" d="M 524.683594 455.394531 C 524.683594 439.117188 535.359375 427.269531 549.210938 427.269531 C 561.15625 427.269531 569.933594 435.945312 572.578125 449.265625 L 540.648438 459.097656 C 543.394531 466.816406 549.109375 471.675781 556.511719 471.675781 C 561.796875 471.675781 566.769531 469.132812 570.574219 465.015625 L 572.375 469.132812 C 568.988281 475.476562 561.699219 483.296875 549.964844 483.296875 C 535.6875 483.296875 524.695312 471.878906 524.695312 455.382812 Z M 539.277344 453.808594 L 556.613281 448.207031 C 555.238281 440.277344 551.640625 433.300781 546.464844 433.300781 C 542.019531 433.300781 538.746094 438.160156 538.746094 447.464844 C 538.746094 449.679688 538.960938 451.796875 539.277344 453.808594 Z M 539.277344 453.808594 " fill-opacity="1" fill-rule="nonzero"/><path fill="#57ab94" d="M 83.574219 394.667969 C 42.890625 394.667969 9.492188 361.246094 9.46875 320.566406 C 50.125 320.566406 83.574219 354.011719 83.574219 394.667969 Z M 83.574219 394.667969 " fill-opacity="1" fill-rule="nonzero"/><path fill="#57ab94" d="M 83.574219 246.425781 C 83.574219 287.085938 50.148438 320.507812 9.46875 320.53125 C 9.46875 279.875 42.890625 246.425781 83.574219 246.425781 Z M 83.574219 246.425781 " fill-opacity="1" fill-rule="nonzero"/><path fill="#57ab94" d="M 83.574219 394.667969 C 42.890625 394.667969 9.492188 361.246094 9.46875 320.566406 C 50.125 320.566406 83.574219 354.011719 83.574219 394.667969 Z M 83.574219 394.667969 " fill-opacity="1" fill-rule="nonzero"/><path fill="#57ab94" d="M 83.574219 246.425781 C 83.574219 287.085938 50.148438 320.507812 9.46875 320.53125 C 9.46875 279.875 42.890625 246.425781 83.574219 246.425781 Z M 83.574219 246.425781 " fill-opacity="1" fill-rule="nonzero"/><path fill="#57ab94" d="M 158.316406 394.667969 C 117.636719 394.667969 84.238281 361.246094 84.214844 320.566406 C 124.871094 320.566406 158.316406 354.011719 158.316406 394.667969 Z M 158.316406 394.667969 " fill-opacity="1" fill-rule="nonzero"/><path fill="#57ab94" d="M 158.316406 246.425781 C 158.316406 287.085938 124.894531 320.507812 84.214844 320.53125 C 84.214844 279.875 117.636719 246.425781 158.316406 246.425781 Z M 158.316406 246.425781 " fill-opacity="1" fill-rule="nonzero"/><path fill="#57ab94" d="M 158.316406 394.667969 C 117.636719 394.667969 84.238281 361.246094 84.214844 320.566406 C 124.871094 320.566406 158.316406 354.011719 158.316406 394.667969 Z M 158.316406 394.667969 " fill-opacity="1" fill-rule="nonzero"/><path fill="#57ab94" d="M 158.316406 246.425781 C 158.316406 287.085938 124.894531 320.507812 84.214844 320.53125 C 84.214844 279.875 117.636719 246.425781 158.316406 246.425781 Z M 158.316406 246.425781 " fill-opacity="1" fill-rule="nonzero"/><path fill="#0b56b8" d="M 157.722656 394.667969 L 9.46875 394.667969 C 9.46875 475.996094 76.394531 542.921875 157.722656 542.921875 C 239.046875 542.921875 305.972656 475.996094 305.972656 394.667969 Z M 157.722656 394.667969 " fill-opacity="1" fill-rule="nonzero"/><path fill="#57ab94" d="M 227.503906 270.636719 C 227.503906 271.429688 227.464844 272.222656 227.386719 273.011719 C 227.3125 273.800781 227.195312 274.582031 227.039062 275.359375 C 226.886719 276.136719 226.691406 276.90625 226.460938 277.664062 C 226.230469 278.421875 225.964844 279.167969 225.664062 279.902344 C 225.359375 280.632812 225.019531 281.351562 224.644531 282.050781 C 224.273438 282.75 223.867188 283.429688 223.425781 284.085938 C 222.984375 284.746094 222.511719 285.382812 222.007812 285.996094 C 221.507812 286.609375 220.976562 287.195312 220.414062 287.757812 C 219.851562 288.316406 219.265625 288.847656 218.652344 289.351562 C 218.039062 289.855469 217.40625 290.328125 216.746094 290.765625 C 216.085938 291.207031 215.40625 291.613281 214.707031 291.988281 C 214.007812 292.363281 213.292969 292.699219 212.558594 293.003906 C 211.828125 293.308594 211.082031 293.574219 210.324219 293.804688 C 209.5625 294.035156 208.796875 294.226562 208.019531 294.382812 C 207.242188 294.535156 206.457031 294.652344 205.667969 294.730469 C 204.878906 294.808594 204.089844 294.847656 203.296875 294.847656 C 202.503906 294.847656 201.710938 294.808594 200.921875 294.730469 C 200.132812 294.652344 199.347656 294.535156 198.570312 294.382812 C 197.792969 294.226562 197.027344 294.035156 196.265625 293.804688 C 195.507812 293.574219 194.761719 293.308594 194.03125 293.003906 C 193.296875 292.699219 192.582031 292.363281 191.882812 291.988281 C 191.183594 291.613281 190.503906 291.207031 189.84375 290.765625 C 189.183594 290.328125 188.550781 289.855469 187.9375 289.351562 C 187.324219 288.847656 186.738281 288.316406 186.175781 287.757812 C 185.617188 287.195312 185.082031 286.609375 184.582031 285.996094 C 184.078125 285.382812 183.605469 284.746094 183.164062 284.085938 C 182.726562 283.429688 182.316406 282.75 181.945312 282.050781 C 181.570312 281.351562 181.230469 280.632812 180.929688 279.902344 C 180.625 279.167969 180.359375 278.421875 180.128906 277.664062 C 179.898438 276.90625 179.703125 276.136719 179.550781 275.359375 C 179.394531 274.582031 179.28125 273.800781 179.203125 273.011719 C 179.125 272.222656 179.085938 271.429688 179.085938 270.636719 C 179.085938 269.84375 179.125 269.054688 179.203125 268.265625 C 179.28125 267.476562 179.394531 266.691406 179.550781 265.914062 C 179.703125 265.136719 179.898438 264.367188 180.128906 263.609375 C 180.359375 262.851562 180.625 262.105469 180.929688 261.371094 C 181.230469 260.640625 181.570312 259.925781 181.945312 259.222656 C 182.316406 258.523438 182.726562 257.847656 183.164062 257.1875 C 183.605469 256.527344 184.078125 255.890625 184.582031 255.277344 C 185.082031 254.664062 185.617188 254.078125 186.175781 253.519531 C 186.738281 252.957031 187.324219 252.425781 187.9375 251.921875 C 188.550781 251.417969 189.183594 250.949219 189.84375 250.507812 C 190.503906 250.066406 191.183594 249.660156 191.882812 249.285156 C 192.582031 248.910156 193.296875 248.574219 194.03125 248.269531 C 194.761719 247.964844 195.507812 247.699219 196.265625 247.46875 C 197.027344 247.238281 197.792969 247.046875 198.570312 246.890625 C 199.347656 246.738281 200.132812 246.621094 200.921875 246.542969 C 201.710938 246.464844 202.503906 246.425781 203.296875 246.425781 C 204.089844 246.425781 204.878906 246.464844 205.667969 246.542969 C 206.457031 246.621094 207.242188 246.738281 208.019531 246.890625 C 208.796875 247.046875 209.5625 247.238281 210.324219 247.46875 C 211.082031 247.699219 211.828125 247.964844 212.558594 248.269531 C 213.292969 248.574219 214.007812 248.910156 214.707031 249.285156 C 215.40625 249.660156 216.085938 250.066406 216.746094 250.507812 C 217.40625 250.949219 218.039062 251.417969 218.652344 251.921875 C 219.265625 252.425781 219.851562 252.957031 220.414062 253.519531 C 220.976562 254.078125 221.507812 254.664062 222.007812 255.277344 C 222.511719 255.890625 222.984375 256.527344 223.425781 257.1875 C 223.867188 257.847656 224.273438 258.523438 224.644531 259.222656 C 225.019531 259.925781 225.359375 260.640625 225.664062 261.371094 C 225.964844 262.105469 226.230469 262.851562 226.460938 263.609375 C 226.691406 264.367188 226.886719 265.136719 227.039062 265.914062 C 227.195312 266.691406 227.3125 267.476562 227.386719 268.265625 C 227.464844 269.054688 227.503906 269.84375 227.503906 270.636719 Z M 227.503906 270.636719 " fill-opacity="1" fill-rule="nonzero"/><path fill="#083d82" d="M 307.199219 264.460938 L 307.199219 267.992188 C 307.199219 270.636719 306.613281 273.246094 305.5 275.644531 L 249.835938 394.679688 L 158.949219 394.679688 L 275.203125 253.019531 C 278.636719 248.847656 283.753906 246.414062 289.15625 246.414062 C 299.121094 246.414062 307.210938 254.492188 307.210938 264.472656 Z M 307.199219 264.460938 " fill-opacity="1" fill-rule="nonzero"/></svg>